<svg width="285" height="304" viewBox="0 0 285 304" fill="none" xmlns="http://www.w3.org/2000/svg">
<g filter="url(#filter0_f_343_36)">
<path d="M186.413 -4.85832C164.052 -15.1471 154.316 -41.5056 164.667 -63.7318C175.019 -85.958 201.537 -95.6351 223.898 -85.3464C246.259 -75.0576 255.995 -48.6991 245.643 -26.4729C235.292 -4.24673 208.774 5.43045 186.413 -4.85832Z" fill="#00F4E2"/>
<path d="M301.162 -19.768C272.336 -33.0318 259.785 -67.0121 273.129 -95.6651C286.473 -124.318 320.659 -136.794 349.486 -123.53C378.313 -110.266 390.864 -76.2855 377.52 -47.6325C364.175 -18.9795 329.989 -6.50415 301.162 -19.768Z" fill="#00F4E2"/>
<path d="M241.713 -37.1127C208.846 -52.2359 194.535 -90.9798 209.75 -123.65C224.965 -156.319 263.944 -170.544 296.812 -155.42C329.679 -140.297 343.99 -101.553 328.775 -68.8835C313.56 -36.2137 274.581 -21.9894 241.713 -37.1127Z" fill="#00F4E2"/>
<path d="M247.838 -53.7361C247.528 -81.5201 269.936 -104.294 297.889 -104.602C325.841 -104.911 348.752 -82.6374 349.063 -54.8535C349.373 -27.0695 326.965 -4.29601 299.013 -3.98746C271.06 -3.67891 248.149 -25.9521 247.838 -53.7361Z" fill="#00F4E2"/>
<path d="M319.196 55.8023C318.796 19.9844 347.684 -9.3742 383.719 -9.77197C419.754 -10.1697 449.29 18.5439 449.691 54.3618C450.091 90.1797 421.203 119.538 385.168 119.936C349.133 120.334 319.596 91.6202 319.196 55.8023Z" fill="#00F4E2"/>
<path d="M308.058 -13.1801C307.602 -54.0192 340.539 -87.4935 381.626 -87.947C422.712 -88.4005 456.39 -55.6616 456.846 -14.8225C457.302 26.0166 424.365 59.4909 383.278 59.9444C342.191 60.398 308.514 27.659 308.058 -13.1801Z" fill="#00F4E2"/>
</g>
<defs>
<filter id="filter0_f_343_36" x="-1.62109" y="-322" width="666.684" height="630.247" filterUnits="userSpaceOnUse" color-interpolation-filters="sRGB">
<feFlood flood-opacity="0" result="BackgroundImageFix"/>
<feBlend mode="normal" in="SourceGraphic" in2="BackgroundImageFix" result="shape"/>
<feGaussianBlur stdDeviation="80" result="effect1_foregroundBlur_343_36"/>
</filter>
</defs>
</svg>
